<svg width="34" height="34" viewBox="0 0 34 34" fill="none" xmlns="http://www.w3.org/2000/svg">
<path d="M17.0001 26.9167C18.5584 26.9167 19.8334 28.1917 19.8334 29.75C19.8334 31.3083 18.5584 32.5833 17.0001 32.5833C15.4417 32.5833 14.1667 31.3083 14.1667 29.75C14.1667 28.1917 15.4417 26.9167 17.0001 26.9167ZM17.0001 1.41666C18.5584 1.41666 19.8334 2.69166 19.8334 4.24999C19.8334 5.80832 18.5584 7.08332 17.0001 7.08332C15.4417 7.08332 14.1667 5.80832 14.1667 4.24999C14.1667 2.69166 15.4417 1.41666 17.0001 1.41666ZM8.50008 22.6667C10.0584 22.6667 11.3334 23.9417 11.3334 25.5C11.3334 27.0583 10.0584 28.3333 8.50008 28.3333C6.94175 28.3333 5.66675 27.0583 5.66675 25.5C5.66675 23.9417 6.94175 22.6667 8.50008 22.6667ZM4.25008 14.1667C5.80841 14.1667 7.08341 15.4417 7.08341 17C7.08341 18.5583 5.80841 19.8333 4.25008 19.8333C2.69175 19.8333 1.41675 18.5583 1.41675 17C1.41675 15.4417 2.69175 14.1667 4.25008 14.1667ZM8.50008 5.66666C10.0584 5.66666 11.3334 6.94166 11.3334 8.49999C11.3334 10.0583 10.0584 11.3333 8.50008 11.3333C6.94175 11.3333 5.66675 10.0583 5.66675 8.49999C5.66675 6.94166 6.94175 5.66666 8.50008 5.66666ZM25.5001 22.6667C27.0584 22.6667 28.3334 23.9417 28.3334 25.5C28.3334 27.0583 27.0584 28.3333 25.5001 28.3333C23.9417 28.3333 22.6667 27.0583 22.6667 25.5C22.6667 23.9417 23.9417 22.6667 25.5001 22.6667ZM29.7501 14.1667C31.3084 14.1667 32.5834 15.4417 32.5834 17C32.5834 18.5583 31.3084 19.8333 29.7501 19.8333C28.1917 19.8333 26.9167 18.5583 26.9167 17C26.9167 15.4417 28.1917 14.1667 29.7501 14.1667ZM25.5001 5.66666C27.0584 5.66666 28.3334 6.94166 28.3334 8.49999C28.3334 10.0583 27.0584 11.3333 25.5001 11.3333C23.9417 11.3333 22.6667 10.0583 22.6667 8.49999C22.6667 6.94166 23.9417 5.66666 25.5001 5.66666Z" fill="url(#paint0_linear_1729_6904)"/>
<defs>
<linearGradient id="paint0_linear_1729_6904" x1="17.0001" y1="1.41666" x2="17.0001" y2="32.5833" gradientUnits="userSpaceOnUse">
<stop stop-color="#439DEE"/>
<stop offset="1" stop-color="#1E78E9"/>
</linearGradient>
</defs>
</svg>
