<svg width="24" height="24" viewBox="0 0 24 24" fill="none" xmlns="http://www.w3.org/2000/svg">
<path d="M12 4C10.4177 4 8.87103 4.46919 7.55544 5.34824C6.23985 6.22729 5.21447 7.47671 4.60897 8.93852C4.00347 10.4003 3.84504 12.0089 4.15372 13.5607C4.4624 15.1126 5.22433 16.538 6.34315 17.6568C7.46197 18.7757 8.88743 19.5376 10.4393 19.8463C11.9911 20.1549 13.5997 19.9965 15.0615 19.391C16.5233 18.7855 17.7727 17.7601 18.6517 16.4445C19.5308 15.129 20 13.5822 20 12C20 9.87826 19.1571 7.84342 17.6569 6.34313C16.1566 4.84284 14.1217 4 12 4ZM12 5.39196C13.4584 5.39118 14.8753 5.87744 16.0259 6.7736C15.1491 7.86453 14.0045 8.7096 12.7038 9.22637C12.0183 7.96414 11.2418 6.75352 10.3803 5.60413C10.9091 5.46524 11.4533 5.39395 12 5.39196ZM9.01423 6.12677C9.88739 7.26282 10.676 8.46137 11.3739 9.71279C9.48847 10.2229 7.54167 10.4701 5.58862 10.4476C5.81607 9.52373 6.23974 8.65965 6.83083 7.91408C7.42193 7.16851 8.16659 6.55894 9.01423 6.12677ZM5.39198 12.0155C5.39198 11.9586 5.39198 11.9017 5.39198 11.8447C7.63345 11.8843 9.86809 11.586 12.0207 10.9599C12.1759 11.2755 12.3208 11.5964 12.4657 11.9172C10.1803 12.6632 8.22737 14.1842 6.94438 16.2173C5.94701 15.0379 5.39734 13.5446 5.39198 12V12.0155ZM11.9948 18.6184C10.5255 18.617 9.09891 18.1233 7.94308 17.216C9.07445 15.2969 10.8778 13.866 13.0039 13.2005C13.624 14.808 14.08 16.4741 14.3648 18.1733C13.6098 18.4613 12.808 18.607 12 18.6028L11.9948 18.6184ZM15.6636 17.5058C15.3702 15.9403 14.9426 14.4029 14.3855 12.9107C15.7635 12.7336 17.161 12.7773 18.5252 13.0401C18.3845 13.9424 18.0579 14.8057 17.5662 15.5753C17.0745 16.3449 16.4284 17.004 15.6688 17.511L15.6636 17.5058ZM13.8525 11.5912C13.6869 11.2186 13.5213 10.8409 13.3351 10.4735C14.7714 9.8832 16.0403 8.94842 17.0297 7.75161C17.9576 8.84483 18.5027 10.2113 18.5821 11.6429C17.0222 11.3557 15.4251 11.333 13.8577 11.5757L13.8525 11.5912Z" fill="#344767"/>
</svg>
