<svg width="34" height="34" viewBox="0 0 34 34" fill="none" xmlns="http://www.w3.org/2000/svg">
<path d="M25.3583 24.6358C24.9899 23.5025 23.9274 22.6666 22.6666 22.6666H21.2499V18.4166C21.2499 18.0409 21.1007 17.6806 20.835 17.4149C20.5693 17.1492 20.209 17 19.8333 17H11.3333V14.1666H14.1666C14.5423 14.1666 14.9026 14.0174 15.1683 13.7517C15.434 13.486 15.5833 13.1257 15.5833 12.75V9.91665H18.4166C19.168 9.91665 19.8887 9.61814 20.4201 9.08678C20.9514 8.55543 21.2499 7.83476 21.2499 7.08331V6.50248C25.4008 8.17415 28.3333 12.24 28.3333 17C28.3333 19.9466 27.1999 22.6241 25.3583 24.6358ZM15.5833 28.2341C9.98742 27.54 5.66659 22.78 5.66659 17C5.66659 16.1216 5.77992 15.2716 5.96409 14.4641L12.7499 21.25V22.6666C12.7499 23.4181 13.0484 24.1388 13.5798 24.6701C14.1111 25.2015 14.8318 25.5 15.5833 25.5V28.2341ZM16.9999 2.83331C15.1395 2.83331 13.2973 3.19974 11.5786 3.91169C9.85979 4.62363 8.29807 5.66714 6.98257 6.98263C4.32581 9.6394 2.83325 13.2427 2.83325 17C2.83325 20.7572 4.32581 24.3606 6.98257 27.0173C8.29807 28.3328 9.85979 29.3763 11.5786 30.0883C13.2973 30.8002 15.1395 31.1666 16.9999 31.1666C20.7572 31.1666 24.3605 29.6741 27.0173 27.0173C29.674 24.3606 31.1666 20.7572 31.1666 17C31.1666 15.1396 30.8002 13.2974 30.0882 11.5786C29.3763 9.85985 28.3328 8.29813 27.0173 6.98263C25.7018 5.66714 24.14 4.62363 22.4213 3.91169C20.7025 3.19974 18.8603 2.83331 16.9999 2.83331Z" fill="url(#paint0_linear_1729_6908)"/>
<defs>
<linearGradient id="paint0_linear_1729_6908" x1="16.9999" y1="2.83331" x2="16.9999" y2="31.1666" gradientUnits="userSpaceOnUse">
<stop stop-color="#439DEE"/>
<stop offset="1" stop-color="#1E78E9"/>
</linearGradient>
</defs>
</svg>
