<svg width="16" height="26" viewBox="0 0 16 26" fill="none" xmlns="http://www.w3.org/2000/svg">
<path d="M0.916748 17.25H3.75008C3.75008 18.78 5.69091 20.0833 8.00008 20.0833C10.3092 20.0833 12.2501 18.78 12.2501 17.25C12.2501 15.6917 10.7767 15.125 7.66008 14.3742C4.65675 13.6233 0.916748 12.6883 0.916748 8.75C0.916748 6.21417 2.99925 4.06083 5.87508 3.33833V0.25H10.1251V3.33833C13.0009 4.06083 15.0834 6.21417 15.0834 8.75H12.2501C12.2501 7.22 10.3092 5.91667 8.00008 5.91667C5.69091 5.91667 3.75008 7.22 3.75008 8.75C3.75008 10.3083 5.22341 10.875 8.34008 11.6258C11.3434 12.3767 15.0834 13.3117 15.0834 17.25C15.0834 19.7858 13.0009 21.9392 10.1251 22.6617V25.75H5.87508V22.6617C2.99925 21.9392 0.916748 19.7858 0.916748 17.25Z" fill="url(#paint0_linear_1729_6913)"/>
<defs>
<linearGradient id="paint0_linear_1729_6913" x1="8.00008" y1="0.25" x2="8.00008" y2="25.75" gradientUnits="userSpaceOnUse">
<stop stop-color="#439DEE"/>
<stop offset="1" stop-color="#1E78E9"/>
</linearGradient>
</defs>
</svg>
